<mxfile host="Electron" modified="2021-03-25T12:36:47.872Z" agent="5.0 (X11; Linux x86_64) AppleWebKit/537.36 (KHTML, like Gecko) draw.io/14.4.3 Chrome/87.0.4280.141 Electron/11.3.0 Safari/537.36" etag="L6BnhctBClirDj-Xvck8" compressed="false" version="14.4.3" type="device">
  <diagram id="uBbau7ussQgPSl02ERnx" name="Page-1">
    <mxGraphModel dx="2095" dy="836" grid="1" gridSize="10" guides="1" tooltips="1" connect="1" arrows="1" fold="1" page="1" pageScale="1" pageWidth="827" pageHeight="1169" math="0" shadow="0">
      <root>
        <mxCell id="0" />
        <mxCell id="1" parent="0" />
        <mxCell id="537" value="начало&lt;br&gt;menu_add()" style="rounded=1;whiteSpace=wrap;html=1;arcSize=50;" parent="1" vertex="1">
          <mxGeometry x="20" width="120" height="30" as="geometry" />
        </mxCell>
        <mxCell id="538" value="конец" style="rounded=1;whiteSpace=wrap;html=1;arcSize=50;" parent="1" vertex="1">
          <mxGeometry x="88" y="810" width="120" height="30" as="geometry" />
        </mxCell>
        <mxCell id="GqCFAgjo5kdymURwTjTK-560" style="edgeStyle=orthogonalEdgeStyle;rounded=0;orthogonalLoop=1;jettySize=auto;html=1;exitX=0;exitY=0.5;exitDx=0;exitDy=0;" parent="1" source="536" edge="1">
          <mxGeometry relative="1" as="geometry">
            <mxPoint y="240" as="targetPoint" />
          </mxGeometry>
        </mxCell>
        <mxCell id="536" value="ret == ENTER" style="rhombus;whiteSpace=wrap;html=1;rounded=0;" parent="1" vertex="1">
          <mxGeometry x="170" y="210" width="120" height="60" as="geometry" />
        </mxCell>
        <mxCell id="535" value="last_readed = list_element_new();&lt;br&gt;element_zerofill&lt;br&gt;(last_readed)" style="rounded=0;whiteSpace=wrap;html=1;" parent="1" vertex="1">
          <mxGeometry x="168" y="550" width="120" height="60" as="geometry" />
        </mxCell>
        <mxCell id="1-S8u_m2SJU_XUDlVRuq-555" style="edgeStyle=orthogonalEdgeStyle;rounded=0;orthogonalLoop=1;jettySize=auto;html=1;exitX=0;exitY=0.5;exitDx=0;exitDy=0;entryX=1;entryY=0.5;entryDx=0;entryDy=0;" edge="1" parent="1" source="534" target="533">
          <mxGeometry relative="1" as="geometry" />
        </mxCell>
        <mxCell id="1-S8u_m2SJU_XUDlVRuq-556" style="edgeStyle=orthogonalEdgeStyle;rounded=0;orthogonalLoop=1;jettySize=auto;html=1;exitX=0.5;exitY=1;exitDx=0;exitDy=0;entryX=0.5;entryY=0;entryDx=0;entryDy=0;" edge="1" parent="1" source="534" target="535">
          <mxGeometry relative="1" as="geometry" />
        </mxCell>
        <mxCell id="534" value="last_readed&lt;br&gt;== HEAD" style="rhombus;whiteSpace=wrap;html=1;rounded=0;" parent="1" vertex="1">
          <mxGeometry x="168" y="450" width="120" height="60" as="geometry" />
        </mxCell>
        <mxCell id="1-S8u_m2SJU_XUDlVRuq-557" style="edgeStyle=orthogonalEdgeStyle;rounded=0;orthogonalLoop=1;jettySize=auto;html=1;exitX=0.5;exitY=1;exitDx=0;exitDy=0;" edge="1" parent="1" source="533">
          <mxGeometry relative="1" as="geometry">
            <mxPoint x="228" y="530" as="targetPoint" />
            <Array as="points">
              <mxPoint x="88" y="530" />
            </Array>
          </mxGeometry>
        </mxCell>
        <mxCell id="533" value="scroll_set_head&lt;br&gt;(HEAD)" style="rounded=0;whiteSpace=wrap;html=1;" parent="1" vertex="1">
          <mxGeometry x="28" y="450" width="120" height="60" as="geometry" />
        </mxCell>
        <mxCell id="532" value="list_add(last_readed)" style="rounded=0;whiteSpace=wrap;html=1;" parent="1" vertex="1">
          <mxGeometry x="168" y="370" width="120" height="60" as="geometry" />
        </mxCell>
        <mxCell id="543" style="edgeStyle=orthogonalEdgeStyle;rounded=0;orthogonalLoop=1;jettySize=auto;html=1;exitX=0.5;exitY=1;exitDx=0;exitDy=0;entryX=0.5;entryY=0;entryDx=0;entryDy=0;" parent="1" source="532" target="534" edge="1">
          <mxGeometry relative="1" as="geometry" />
        </mxCell>
        <mxCell id="530" value="Цикл cur&lt;br&gt;От HEAD и пока cur&lt;br&gt;Шаг cur = cur-&amp;gt;NEXT" style="strokeWidth=1;html=1;shape=mxgraph.flowchart.loop_limit;whiteSpace=wrap;flipV=0;" parent="1" vertex="1">
          <mxGeometry x="340" y="210" width="120" height="60" as="geometry" />
        </mxCell>
        <mxCell id="531" value="Цикл cur" style="strokeWidth=1;html=1;shape=mxgraph.flowchart.loop_limit;whiteSpace=wrap;flipV=1;" parent="1" vertex="1">
          <mxGeometry x="340" y="370" width="120" height="60" as="geometry" />
        </mxCell>
        <mxCell id="GqCFAgjo5kdymURwTjTK-565" style="edgeStyle=orthogonalEdgeStyle;rounded=0;orthogonalLoop=1;jettySize=auto;html=1;exitX=0;exitY=0.5;exitDx=0;exitDy=0;entryX=1;entryY=0.5;entryDx=0;entryDy=0;" parent="1" source="529" target="527" edge="1">
          <mxGeometry relative="1" as="geometry" />
        </mxCell>
        <mxCell id="529" value="&lt;font style=&quot;font-size: 11px&quot;&gt;Совпадает&lt;br&gt;№ зачётной&lt;br&gt;книжки&lt;/font&gt;" style="rhombus;whiteSpace=wrap;html=1;rounded=0;" parent="1" vertex="1">
          <mxGeometry x="340" y="290" width="120" height="60" as="geometry" />
        </mxCell>
        <mxCell id="GqCFAgjo5kdymURwTjTK-566" style="edgeStyle=orthogonalEdgeStyle;rounded=0;orthogonalLoop=1;jettySize=auto;html=1;exitX=0;exitY=0.5;exitDx=0;exitDy=0;" parent="1" source="527" edge="1">
          <mxGeometry relative="1" as="geometry">
            <mxPoint y="320" as="targetPoint" />
          </mxGeometry>
        </mxCell>
        <mxCell id="527" value="&lt;font&gt;&lt;font style=&quot;font-size: 12px&quot;&gt;print_error&lt;br&gt;&lt;/font&gt;(&quot;Такой ключ уже есть!&quot;)&lt;/font&gt;" style="shape=parallelogram;perimeter=parallelogramPerimeter;whiteSpace=wrap;html=1;fixedSize=1;fontFamily=Helvetica;fontSize=12;fontColor=#000000;align=center;strokeColor=#000000;fillColor=#ffffff;" parent="1" vertex="1">
          <mxGeometry x="168" y="290" width="120" height="60" as="geometry" />
        </mxCell>
        <mxCell id="546" style="edgeStyle=orthogonalEdgeStyle;rounded=0;orthogonalLoop=1;jettySize=auto;html=1;exitX=0.5;exitY=1;exitDx=0;exitDy=0;entryX=0.5;entryY=0;entryDx=0;entryDy=0;" parent="1" source="529" target="531" edge="1">
          <mxGeometry relative="1" as="geometry">
            <Array as="points">
              <mxPoint x="400" y="370" />
              <mxPoint x="400" y="370" />
            </Array>
          </mxGeometry>
        </mxCell>
        <mxCell id="547" style="edgeStyle=orthogonalEdgeStyle;rounded=0;orthogonalLoop=1;jettySize=auto;html=1;exitX=0.5;exitY=1;exitDx=0;exitDy=0;entryX=0.5;entryY=0;entryDx=0;entryDy=0;" parent="1" source="530" target="529" edge="1">
          <mxGeometry relative="1" as="geometry" />
        </mxCell>
        <mxCell id="548" style="edgeStyle=orthogonalEdgeStyle;rounded=0;orthogonalLoop=1;jettySize=auto;html=1;exitX=0;exitY=0.5;exitDx=0;exitDy=0;entryX=1;entryY=0.5;entryDx=0;entryDy=0;exitPerimeter=0;" parent="1" source="531" target="532" edge="1">
          <mxGeometry relative="1" as="geometry" />
        </mxCell>
        <mxCell id="549" style="edgeStyle=orthogonalEdgeStyle;rounded=0;orthogonalLoop=1;jettySize=auto;html=1;exitX=1;exitY=0.5;exitDx=0;exitDy=0;entryX=0;entryY=0.5;entryDx=0;entryDy=0;entryPerimeter=0;" parent="1" source="536" target="530" edge="1">
          <mxGeometry relative="1" as="geometry" />
        </mxCell>
        <mxCell id="526" value="char ret = draw_editor&lt;br&gt;(last_readed)" style="rounded=0;whiteSpace=wrap;html=1;" parent="1" vertex="1">
          <mxGeometry x="170" y="130" width="120" height="60" as="geometry" />
        </mxCell>
        <mxCell id="551" style="edgeStyle=orthogonalEdgeStyle;rounded=0;orthogonalLoop=1;jettySize=auto;html=1;exitX=0.5;exitY=1;exitDx=0;exitDy=0;entryX=0.5;entryY=0;entryDx=0;entryDy=0;" parent="1" source="526" target="536" edge="1">
          <mxGeometry relative="1" as="geometry" />
        </mxCell>
        <mxCell id="GqCFAgjo5kdymURwTjTK-596" style="edgeStyle=orthogonalEdgeStyle;rounded=0;orthogonalLoop=1;jettySize=auto;html=1;exitX=0;exitY=0.5;exitDx=0;exitDy=0;entryX=0.5;entryY=0;entryDx=0;entryDy=0;" parent="1" source="525" edge="1" target="538">
          <mxGeometry relative="1" as="geometry">
            <mxPoint x="-70" y="1110" as="targetPoint" />
            <Array as="points">
              <mxPoint y="80" />
              <mxPoint y="790" />
              <mxPoint x="148" y="790" />
            </Array>
          </mxGeometry>
        </mxCell>
        <mxCell id="1-S8u_m2SJU_XUDlVRuq-554" style="edgeStyle=orthogonalEdgeStyle;rounded=0;orthogonalLoop=1;jettySize=auto;html=1;exitX=1;exitY=0.5;exitDx=0;exitDy=0;entryX=0;entryY=0.5;entryDx=0;entryDy=0;" edge="1" parent="1" source="525" target="GqCFAgjo5kdymURwTjTK-575">
          <mxGeometry relative="1" as="geometry" />
        </mxCell>
        <mxCell id="1-S8u_m2SJU_XUDlVRuq-560" style="edgeStyle=orthogonalEdgeStyle;rounded=0;orthogonalLoop=1;jettySize=auto;html=1;exitX=0;exitY=0.5;exitDx=0;exitDy=0;" edge="1" parent="1" source="525">
          <mxGeometry relative="1" as="geometry">
            <mxPoint y="790" as="targetPoint" />
          </mxGeometry>
        </mxCell>
        <mxCell id="525" value="link_layer == SEARCH" style="rhombus;whiteSpace=wrap;html=1;rounded=0;" parent="1" vertex="1">
          <mxGeometry x="20" y="50" width="120" height="60" as="geometry" />
        </mxCell>
        <mxCell id="552" style="edgeStyle=orthogonalEdgeStyle;rounded=0;orthogonalLoop=1;jettySize=auto;html=1;exitX=0.5;exitY=1;exitDx=0;exitDy=0;entryX=0.5;entryY=0;entryDx=0;entryDy=0;" parent="1" source="525" edge="1">
          <mxGeometry relative="1" as="geometry" />
        </mxCell>
        <mxCell id="554" style="edgeStyle=orthogonalEdgeStyle;rounded=0;orthogonalLoop=1;jettySize=auto;html=1;exitX=0.5;exitY=1;exitDx=0;exitDy=0;entryX=0.5;entryY=0;entryDx=0;entryDy=0;" parent="1" source="537" target="525" edge="1">
          <mxGeometry relative="1" as="geometry" />
        </mxCell>
        <mxCell id="GqCFAgjo5kdymURwTjTK-561" value="+" style="text;html=1;align=center;verticalAlign=middle;resizable=0;points=[];autosize=1;" parent="1" vertex="1">
          <mxGeometry x="290" y="240" width="20" height="20" as="geometry" />
        </mxCell>
        <mxCell id="GqCFAgjo5kdymURwTjTK-562" value="+" style="text;html=1;align=center;verticalAlign=middle;resizable=0;points=[];autosize=1;" parent="1" vertex="1">
          <mxGeometry y="60" width="20" height="20" as="geometry" />
        </mxCell>
        <mxCell id="GqCFAgjo5kdymURwTjTK-563" value="+" style="text;html=1;align=center;verticalAlign=middle;resizable=0;points=[];autosize=1;" parent="1" vertex="1">
          <mxGeometry x="320" y="320" width="20" height="20" as="geometry" />
        </mxCell>
        <mxCell id="GqCFAgjo5kdymURwTjTK-572" style="edgeStyle=orthogonalEdgeStyle;rounded=0;orthogonalLoop=1;jettySize=auto;html=1;exitX=0.5;exitY=1;exitDx=0;exitDy=0;entryX=0.5;entryY=0;entryDx=0;entryDy=0;" parent="1" source="GqCFAgjo5kdymURwTjTK-567" target="538" edge="1">
          <mxGeometry relative="1" as="geometry">
            <Array as="points">
              <mxPoint x="228" y="790" />
              <mxPoint x="148" y="790" />
            </Array>
          </mxGeometry>
        </mxCell>
        <mxCell id="GqCFAgjo5kdymURwTjTK-595" style="edgeStyle=orthogonalEdgeStyle;rounded=0;orthogonalLoop=1;jettySize=auto;html=1;exitX=0.5;exitY=1;exitDx=0;exitDy=0;" parent="1" source="GqCFAgjo5kdymURwTjTK-567" edge="1">
          <mxGeometry relative="1" as="geometry">
            <mxPoint x="228" y="790" as="targetPoint" />
          </mxGeometry>
        </mxCell>
        <mxCell id="GqCFAgjo5kdymURwTjTK-567" value="&lt;font style=&quot;font-size: 12px&quot;&gt;start_quote();&lt;br&gt;print_to_status&lt;br&gt;(&quot;Элемент&lt;br&gt;добавлен&quot;)&lt;/font&gt;" style="shape=parallelogram;perimeter=parallelogramPerimeter;whiteSpace=wrap;html=1;fixedSize=1;fontFamily=Helvetica;fontSize=12;fontColor=#000000;align=center;strokeColor=#000000;fillColor=#ffffff;" parent="1" vertex="1">
          <mxGeometry x="168" y="710" width="120" height="60" as="geometry" />
        </mxCell>
        <mxCell id="GqCFAgjo5kdymURwTjTK-568" style="edgeStyle=orthogonalEdgeStyle;rounded=0;orthogonalLoop=1;jettySize=auto;html=1;exitX=0.5;exitY=1;exitDx=0;exitDy=0;entryX=0.5;entryY=0;entryDx=0;entryDy=0;" parent="1" source="GqCFAgjo5kdymURwTjTK-573" target="GqCFAgjo5kdymURwTjTK-567" edge="1">
          <mxGeometry relative="1" as="geometry">
            <mxPoint x="228" y="610" as="sourcePoint" />
            <mxPoint x="158" y="850" as="targetPoint" />
          </mxGeometry>
        </mxCell>
        <mxCell id="GqCFAgjo5kdymURwTjTK-573" value="&lt;span style=&quot;font-size: 11px&quot;&gt;redraw_scroll()&lt;/span&gt;" style="rounded=0;whiteSpace=wrap;html=1;" parent="1" vertex="1">
          <mxGeometry x="168" y="630" width="120" height="60" as="geometry" />
        </mxCell>
        <mxCell id="GqCFAgjo5kdymURwTjTK-574" style="edgeStyle=orthogonalEdgeStyle;rounded=0;orthogonalLoop=1;jettySize=auto;html=1;exitX=0.5;exitY=1;exitDx=0;exitDy=0;entryX=0.5;entryY=0;entryDx=0;entryDy=0;" parent="1" source="535" target="GqCFAgjo5kdymURwTjTK-573" edge="1">
          <mxGeometry relative="1" as="geometry">
            <mxPoint x="228" y="610" as="sourcePoint" />
            <mxPoint x="228" y="680" as="targetPoint" />
          </mxGeometry>
        </mxCell>
        <mxCell id="GqCFAgjo5kdymURwTjTK-577" style="edgeStyle=orthogonalEdgeStyle;rounded=0;orthogonalLoop=1;jettySize=auto;html=1;exitX=0.5;exitY=1;exitDx=0;exitDy=0;entryX=0.5;entryY=0;entryDx=0;entryDy=0;" parent="1" source="GqCFAgjo5kdymURwTjTK-575" target="526" edge="1">
          <mxGeometry relative="1" as="geometry" />
        </mxCell>
        <mxCell id="GqCFAgjo5kdymURwTjTK-575" value="&lt;span&gt;&amp;nbsp; &amp;nbsp; print_to_status&lt;br&gt;(&quot;Enter - &lt;br&gt;добавление.&lt;br&gt;Esc -&amp;nbsp;отмена&quot;)&amp;nbsp; &amp;nbsp;&amp;nbsp;&lt;/span&gt;" style="shape=parallelogram;perimeter=parallelogramPerimeter;whiteSpace=wrap;html=1;fixedSize=1;" parent="1" vertex="1">
          <mxGeometry x="170" y="50" width="120" height="60" as="geometry" />
        </mxCell>
        <mxCell id="GqCFAgjo5kdymURwTjTK-579" value="+" style="text;html=1;align=center;verticalAlign=middle;resizable=0;points=[];autosize=1;" parent="1" vertex="1">
          <mxGeometry x="158" y="480" width="20" height="20" as="geometry" />
        </mxCell>
        <mxCell id="GqCFAgjo5kdymURwTjTK-580" value="1" style="whiteSpace=wrap;html=1;aspect=fixed;" parent="1" vertex="1">
          <mxGeometry x="142" y="50" width="20" height="20" as="geometry" />
        </mxCell>
        <mxCell id="GqCFAgjo5kdymURwTjTK-581" value="2" style="whiteSpace=wrap;html=1;aspect=fixed;" parent="1" vertex="1">
          <mxGeometry x="292" y="50" width="20" height="20" as="geometry" />
        </mxCell>
        <mxCell id="GqCFAgjo5kdymURwTjTK-582" value="3" style="whiteSpace=wrap;html=1;aspect=fixed;" parent="1" vertex="1">
          <mxGeometry x="292" y="130" width="20" height="20" as="geometry" />
        </mxCell>
        <mxCell id="GqCFAgjo5kdymURwTjTK-583" value="4" style="whiteSpace=wrap;html=1;aspect=fixed;" parent="1" vertex="1">
          <mxGeometry x="292" y="210" width="20" height="20" as="geometry" />
        </mxCell>
        <mxCell id="GqCFAgjo5kdymURwTjTK-584" value="5" style="whiteSpace=wrap;html=1;aspect=fixed;" parent="1" vertex="1">
          <mxGeometry x="462" y="210" width="20" height="20" as="geometry" />
        </mxCell>
        <mxCell id="GqCFAgjo5kdymURwTjTK-585" value="6" style="whiteSpace=wrap;html=1;aspect=fixed;" parent="1" vertex="1">
          <mxGeometry x="462" y="290" width="20" height="20" as="geometry" />
        </mxCell>
        <mxCell id="GqCFAgjo5kdymURwTjTK-586" value="8" style="whiteSpace=wrap;html=1;aspect=fixed;" parent="1" vertex="1">
          <mxGeometry x="462" y="370" width="20" height="20" as="geometry" />
        </mxCell>
        <mxCell id="GqCFAgjo5kdymURwTjTK-587" value="9" style="whiteSpace=wrap;html=1;aspect=fixed;" parent="1" vertex="1">
          <mxGeometry x="290" y="370" width="20" height="20" as="geometry" />
        </mxCell>
        <mxCell id="GqCFAgjo5kdymURwTjTK-588" value="10" style="whiteSpace=wrap;html=1;aspect=fixed;" parent="1" vertex="1">
          <mxGeometry x="288" y="450" width="20" height="20" as="geometry" />
        </mxCell>
        <mxCell id="GqCFAgjo5kdymURwTjTK-589" value="11" style="whiteSpace=wrap;html=1;aspect=fixed;" parent="1" vertex="1">
          <mxGeometry x="150" y="450" width="20" height="20" as="geometry" />
        </mxCell>
        <mxCell id="GqCFAgjo5kdymURwTjTK-591" value="12" style="whiteSpace=wrap;html=1;aspect=fixed;" parent="1" vertex="1">
          <mxGeometry x="290" y="550" width="20" height="20" as="geometry" />
        </mxCell>
        <mxCell id="GqCFAgjo5kdymURwTjTK-592" value="13" style="whiteSpace=wrap;html=1;aspect=fixed;" parent="1" vertex="1">
          <mxGeometry x="290" y="630" width="20" height="20" as="geometry" />
        </mxCell>
        <mxCell id="GqCFAgjo5kdymURwTjTK-593" value="14" style="whiteSpace=wrap;html=1;aspect=fixed;" parent="1" vertex="1">
          <mxGeometry x="290" y="710" width="20" height="20" as="geometry" />
        </mxCell>
        <mxCell id="GqCFAgjo5kdymURwTjTK-594" value="7" style="whiteSpace=wrap;html=1;aspect=fixed;" parent="1" vertex="1">
          <mxGeometry x="292" y="290" width="20" height="20" as="geometry" />
        </mxCell>
      </root>
    </mxGraphModel>
  </diagram>
</mxfile>
